<svg xmlns="http://www.w3.org/2000/svg" viewBox="0 0 960 960"><defs><style>.cls-1{fill:none;}.cls-2{fill:#101010;}</style></defs><title>SkyTr33-MarkOnlyBW-TransBG</title><g id="Layer_2" data-name="Layer 2"><g id="Layer_1-2" data-name="Layer 1"><rect class="cls-1" width="960" height="960"/><g id="leaves"><rect class="cls-2" x="349.9" y="92.82" width="61.97" height="61.97"/><rect class="cls-2" x="226.73" y="92.82" width="61.97" height="61.97"/><rect class="cls-2" x="611.63" y="92.82" width="61.97" height="61.97"/><rect class="cls-2" x="488.48" y="92.82" width="61.97" height="61.97"/><rect class="cls-2" x="414.18" y="157.11" width="55.43" height="55.43"/><rect class="cls-2" x="291" y="157.11" width="55.43" height="55.43"/><rect class="cls-2" x="355.67" y="221.76" width="49.27" height="49.27"/><rect class="cls-2" x="232.5" y="221.76" width="49.27" height="49.27"/><rect class="cls-2" x="420.33" y="286.43" width="43.11" height="43.11"/><rect class="cls-2" x="297.16" y="286.43" width="43.11" height="43.11"/><rect class="cls-2" x="361.83" y="345.32" width="36.96" height="36.96"/><rect class="cls-2" x="238.65" y="345.32" width="36.96" height="36.96"/><rect class="cls-2" x="426.49" y="406.14" width="30.8" height="30.8"/><rect class="cls-2" x="303.32" y="406.14" width="30.8" height="30.8"/><rect class="cls-2" x="368" y="463.13" width="24.63" height="24.63"/><rect class="cls-2" x="244.83" y="463.13" width="24.63" height="24.63"/><rect class="cls-2" x="306.41" y="513.54" width="24.63" height="24.63"/><rect class="cls-2" x="109.32" y="215.22" width="61.97" height="61.97"/><rect class="cls-2" x="173.6" y="279.51" width="55.43" height="55.43"/><rect class="cls-2" x="50.43" y="279.51" width="55.43" height="55.43"/><rect class="cls-2" x="115.1" y="344.18" width="49.27" height="49.27"/><rect class="cls-2" x="179.76" y="408.84" width="43.11" height="43.11"/><rect class="cls-2" x="56.59" y="408.84" width="43.11" height="43.11"/><rect class="cls-2" x="121.25" y="467.74" width="36.96" height="36.96"/><rect class="cls-2" x="185.92" y="528.55" width="30.8" height="30.8"/><rect class="cls-2" x="62.75" y="528.55" width="30.8" height="30.8"/><rect class="cls-2" x="127.42" y="585.52" width="24.63" height="24.63"/><rect class="cls-2" x="546.21" y="167.88" width="61.97" height="61.97"/><rect class="cls-2" x="669.38" y="167.88" width="61.97" height="61.97"/><rect class="cls-2" x="488.46" y="232.16" width="55.43" height="55.43"/><rect class="cls-2" x="611.65" y="232.16" width="55.43" height="55.43"/><rect class="cls-2" x="553.14" y="296.84" width="49.27" height="49.27"/><rect class="cls-2" x="676.31" y="296.84" width="49.27" height="49.27"/><rect class="cls-2" x="494.63" y="361.5" width="43.11" height="43.11"/><rect class="cls-2" x="617.81" y="361.5" width="43.11" height="43.11"/><rect class="cls-2" x="559.3" y="420.4" width="36.96" height="36.96"/><rect class="cls-2" x="682.47" y="420.4" width="36.96" height="36.96"/><rect class="cls-2" x="500.79" y="481.21" width="30.8" height="30.8"/><rect class="cls-2" x="623.96" y="481.21" width="30.8" height="30.8"/><rect class="cls-2" x="565.46" y="538.17" width="24.63" height="24.63"/><rect class="cls-2" x="688.63" y="538.17" width="24.63" height="24.63"/><rect class="cls-2" x="788.7" y="291.05" width="61.97" height="61.97"/><rect class="cls-2" x="730.97" y="355.35" width="55.43" height="55.43"/><rect class="cls-2" x="854.14" y="355.35" width="55.43" height="55.43"/><rect class="cls-2" x="795.63" y="420.01" width="49.27" height="49.27"/><rect class="cls-2" x="737.13" y="484.68" width="43.11" height="43.11"/><rect class="cls-2" x="860.3" y="484.68" width="43.11" height="43.11"/><rect class="cls-2" x="801.79" y="543.57" width="36.96" height="36.96"/><rect class="cls-2" x="743.28" y="604.38" width="30.8" height="30.8"/><rect class="cls-2" x="866.45" y="604.38" width="30.8" height="30.8"/><rect class="cls-2" x="807.95" y="661.34" width="24.63" height="24.63"/></g><path class="cls-2" d="M588.68,844.75H491.21V723.2l99.6-99.6H573.07a33.88,33.88,0,0,0-24,9.92L480,702.68l-69.15-69.16a33.91,33.91,0,0,0-23.92-9.92H369.19l99.6,99.6V844.75H371.32a33.9,33.9,0,0,0-25.65,11.73l-9.23,10.7H623.56l-9.23-10.7A33.9,33.9,0,0,0,588.68,844.75Z"/></g></g></svg>