<svg xmlns="http://www.w3.org/2000/svg" viewBox="0 0 924.01 280.73"><defs><style>.cls-1{fill:#101010;}</style></defs><title>text</title><g id="Layer_2" data-name="Layer 2"><g id="Layer_1-2" data-name="Layer 1"><g id="text"><path class="cls-1" d="M77.41,196.15V168.4L0,150.44V73.38H103.53v53.55H79V98H26.18V127l76.68,17.88v75.44l-66,.2A36.79,36.79,0,0,1,0,183.85v-.11H24.88v12.44Z"/><path class="cls-1" d="M215.46,220.65,170.08,156h-4.9v64.66H140.3V0h24.88V136.15l49.95-62.36h35.59l-62,70.8L254,220.68Z"/><path class="cls-1" d="M384.27,73.38V257.55a23.18,23.18,0,0,1-23.18,23.18H303.88a23.2,23.2,0,0,1-23.18-23.18h77.38v-36.9H281.35V73.38h24.16v123.1h52.57V73.38Z"/><path class="cls-1" d="M511.16,220.65h-60V96.89H421V73.38h30.1V30H476V73.38h35.26V96.89H475.9V197.13h35.26Z"/><path class="cls-1" d="M610,97.55l-35.92.32V220.7H548V73.38h86.85v53.55H610Z"/><path class="cls-1" d="M696.49,125.3V105.72l37.61-51.3H669.71V30H773V55.75l-37.32,50h37.87v115H669.71V177.24h24.88v18.94h52.57V125.3Z"/><path class="cls-1" d="M846.94,125.3V105.72l37.56-51.3H820.17V30H923.36V55.75l-37.22,50H924v78.16a36.79,36.79,0,0,1-36.79,36.79H820.17V177.24H845v18.94h52.59V125.3Z"/></g></g></g></svg>