<?xml version="1.0" encoding="utf-8"?>
<!-- Generator: Adobe Illustrator 22.0.1, SVG Export Plug-In . SVG Version: 6.00 Build 0)  -->
<svg version="1.1" id="Layer_1" xmlns="http://www.w3.org/2000/svg" xmlns:xlink="http://www.w3.org/1999/xlink" x="0px" y="0px"
	 viewBox="0 0 1248 384" style="enable-background:new 0 0 1248 384;" xml:space="preserve">
<style type="text/css">
	.st0{fill:none;}
	.st1{fill:#101010;}
</style>
<rect class="st0" width="1248" height="384"/>
<g>
	<g>
		<g id="leaves">
			<rect x="152.4" y="15" class="st1" width="28.4" height="28.4"/>
			<rect x="96" y="15" class="st1" width="28.4" height="28.4"/>
			<rect x="272" y="15" class="st1" width="28.4" height="28.4"/>
			<rect x="215.7" y="15" class="st1" width="28.4" height="28.4"/>
			<rect x="181.7" y="44.4" class="st1" width="25.3" height="25.3"/>
			<rect x="125.4" y="44.4" class="st1" width="25.3" height="25.3"/>
			<rect x="154.9" y="74" class="st1" width="22.5" height="22.5"/>
			<rect x="98.7" y="74" class="st1" width="22.5" height="22.5"/>
			<rect x="184.5" y="103.5" class="st1" width="19.7" height="19.7"/>
			<rect x="128.2" y="103.5" class="st1" width="19.7" height="19.7"/>
			<rect x="157.8" y="130.5" class="st1" width="16.9" height="16.9"/>
			<rect x="101.5" y="130.5" class="st1" width="16.9" height="16.9"/>
			<rect x="187.3" y="158.2" class="st1" width="14.1" height="14.1"/>
			<rect x="131" y="158.2" class="st1" width="14.1" height="14.1"/>
			<rect x="160.6" y="184.2" class="st1" width="11.3" height="11.3"/>
			<rect x="104.3" y="184.2" class="st1" width="11.3" height="11.3"/>
			<rect x="132.4" y="207.4" class="st1" width="11.3" height="11.3"/>
			<rect x="42.4" y="70.9" class="st1" width="28.4" height="28.4"/>
			<rect x="71.7" y="100.3" class="st1" width="25.3" height="25.3"/>
			<rect x="15.4" y="100.3" class="st1" width="25.3" height="25.3"/>
			<rect x="44.9" y="129.9" class="st1" width="22.5" height="22.5"/>
			<rect x="74.5" y="159.4" class="st1" width="19.7" height="19.7"/>
			<rect x="18.2" y="159.4" class="st1" width="19.7" height="19.7"/>
			<rect x="47.8" y="186.4" class="st1" width="16.9" height="16.9"/>
			<rect x="77.3" y="214.3" class="st1" width="14.1" height="14.1"/>
			<rect x="21" y="214.3" class="st1" width="14.1" height="14.1"/>
			<rect x="50.6" y="240.2" class="st1" width="11.3" height="11.3"/>
			<rect x="242" y="49.3" class="st1" width="28.4" height="28.4"/>
			<rect x="298.3" y="49.3" class="st1" width="28.4" height="28.4"/>
			<rect x="215.7" y="78.7" class="st1" width="25.3" height="25.3"/>
			<rect x="272" y="78.7" class="st1" width="25.3" height="25.3"/>
			<rect x="245.2" y="108.2" class="st1" width="22.5" height="22.5"/>
			<rect x="301.5" y="108.2" class="st1" width="22.5" height="22.5"/>
			<rect x="218.5" y="137.8" class="st1" width="19.7" height="19.7"/>
			<rect x="274.8" y="137.8" class="st1" width="19.7" height="19.7"/>
			<rect x="248" y="164.8" class="st1" width="16.9" height="16.9"/>
			<rect x="304.3" y="164.8" class="st1" width="16.9" height="16.9"/>
			<rect x="221.3" y="192.5" class="st1" width="14.1" height="14.1"/>
			<rect x="277.6" y="192.5" class="st1" width="14.1" height="14.1"/>
			<rect x="250.9" y="218.6" class="st1" width="11.3" height="11.3"/>
			<rect x="307.1" y="218.6" class="st1" width="11.3" height="11.3"/>
			<rect x="352.9" y="105.7" class="st1" width="28.4" height="28.4"/>
			<rect x="326.6" y="135" class="st1" width="25.3" height="25.3"/>
			<rect x="382.9" y="135" class="st1" width="25.3" height="25.3"/>
			<rect x="356.1" y="164.5" class="st1" width="22.5" height="22.5"/>
			<rect x="329.4" y="194.2" class="st1" width="19.7" height="19.7"/>
			<rect x="385.7" y="194.2" class="st1" width="19.7" height="19.7"/>
			<rect x="358.9" y="221.1" class="st1" width="16.9" height="16.9"/>
			<rect x="332.2" y="248.8" class="st1" width="14.1" height="14.1"/>
			<rect x="388.5" y="248.8" class="st1" width="14.1" height="14.1"/>
			<rect x="361.8" y="274.9" class="st1" width="11.3" height="11.3"/>
		</g>
		<path class="st1" d="M261.5,358.7H217v-55.6l45.5-45.5h-8.1c-4.1,0-8,1.7-10.9,4.6l-31.7,31.7l-31.5-31.7
			c-2.9-2.9-6.9-4.6-10.9-4.6h-8.1l45.5,45.5v55.6h-44.5c-4.5,0-8.8,1.9-11.7,5.3l-4.2,5h131.2l-4.2-5
			C270.2,360.7,265.9,358.7,261.5,358.7z"/>
	</g>
	<g id="text">
		<path class="st1" d="M587.4,263.6v-21.2l-58.9-13.7V170h78.9v40.8h-18.7v-22.2h-40.3v22.2l58.4,13.7V282l-50.3,0.2
			c-15.4,0.1-28-12.4-28.1-28v-0.1h18.9v9.5H587.4z"/>
		<path class="st1" d="M692.6,282.2L658,232.9h-3.8v49.3h-18.9V114h18.9v103.8l38.1-47.5h27.1l-47.3,54l49.7,57.9L692.6,282.2z"/>
		<path class="st1" d="M821.3,170v140.3c0,9.7-7.9,17.7-17.7,17.7l0,0H760c-9.7,0-17.7-7.9-17.7-17.7l0,0h58.9v-28h-58.5V170.1h18.4
			v93.8h40.1v-93.8L821.3,170L821.3,170z"/>
		<path class="st1" d="M918,282.2h-45.8V188h-22.9V170h22.9v-33.1h18.9V170H918V188h-26.9v76.4h26.9L918,282.2L918,282.2z"/>
		<path class="st1" d="M993.3,188.4l-27.4,0.3v93.6h-19.9V170h66.2v40.8h-18.9V188.4z"/>
		<path class="st1" d="M1059.3,209.6v-14.9l28.6-39.1h-49v-18.7h78.6v19.7l-28.4,38.1h28.9v87.5h-79.1v-33.1h18.9v14.4h40.1v-54
			L1059.3,209.6L1059.3,209.6z"/>
		<path class="st1" d="M1173.9,209.6v-14.9l28.6-39.1h-49v-18.7h78.6v19.7l-28.4,38.1h28.9v59.6c0,15.4-12.5,28-28,28l0,0h-51.1
			v-33.1h18.9v14.4h40.1v-54L1173.9,209.6L1173.9,209.6z"/>
	</g>
</g>
</svg>
