<?xml version="1.0" encoding="utf-8"?>
<!-- Generator: Adobe Illustrator 22.1.0, SVG Export Plug-In . SVG Version: 6.00 Build 0)  -->
<svg version="1.1" id="Layer_1" xmlns="http://www.w3.org/2000/svg" xmlns:xlink="http://www.w3.org/1999/xlink" x="0px" y="0px"
	 viewBox="0 0 960 960" style="enable-background:new 0 0 960 960;" xml:space="preserve">
<style type="text/css">
	.st0{fill:none;}
	.st1{fill:#101010;}
</style>
<g id="white_on_black">
	<rect class="st0" width="960" height="960"/>
	<g>
		<g id="leaves">
			<rect x="389.1" y="96.4" class="st1" width="43.3" height="43.3"/>
			<rect x="303.1" y="96.4" class="st1" width="43.3" height="43.3"/>
			<rect x="571.9" y="96.4" class="st1" width="43.3" height="43.3"/>
			<rect x="485.9" y="96.4" class="st1" width="43.3" height="43.3"/>
			<rect x="434" y="141.3" class="st1" width="38.7" height="38.7"/>
			<rect x="348" y="141.3" class="st1" width="38.7" height="38.7"/>
			<rect x="393.2" y="186.5" class="st1" width="34.4" height="34.4"/>
			<rect x="307.2" y="186.5" class="st1" width="34.4" height="34.4"/>
			<rect x="438.3" y="231.6" class="st1" width="30.1" height="30.1"/>
			<rect x="352.3" y="231.6" class="st1" width="30.1" height="30.1"/>
			<rect x="397.5" y="272.8" class="st1" width="25.8" height="25.8"/>
			<rect x="311.5" y="272.8" class="st1" width="25.8" height="25.8"/>
			<rect x="442.6" y="315.3" class="st1" width="21.5" height="21.5"/>
			<rect x="356.6" y="315.3" class="st1" width="21.5" height="21.5"/>
			<rect x="401.8" y="355" class="st1" width="17.2" height="17.2"/>
			<rect x="315.8" y="355" class="st1" width="17.2" height="17.2"/>
			<rect x="358.8" y="390.3" class="st1" width="17.2" height="17.2"/>
			<rect x="221.1" y="181.9" class="st1" width="43.3" height="43.3"/>
			<rect x="266" y="226.8" class="st1" width="38.7" height="38.7"/>
			<rect x="180" y="226.8" class="st1" width="38.7" height="38.7"/>
			<rect x="225.2" y="272" class="st1" width="34.4" height="34.4"/>
			<rect x="270.3" y="317.1" class="st1" width="30.1" height="30.1"/>
			<rect x="184.3" y="317.1" class="st1" width="30.1" height="30.1"/>
			<rect x="229.5" y="358.3" class="st1" width="25.8" height="25.8"/>
			<rect x="274.6" y="400.7" class="st1" width="21.5" height="21.5"/>
			<rect x="188.6" y="400.7" class="st1" width="21.5" height="21.5"/>
			<rect x="233.8" y="440.5" class="st1" width="17.2" height="17.2"/>
			<rect x="526.2" y="148.9" class="st1" width="43.3" height="43.3"/>
			<rect x="612.3" y="148.9" class="st1" width="43.3" height="43.3"/>
			<rect x="485.9" y="193.8" class="st1" width="38.7" height="38.7"/>
			<rect x="571.9" y="193.8" class="st1" width="38.7" height="38.7"/>
			<rect x="531.1" y="238.9" class="st1" width="34.4" height="34.4"/>
			<rect x="617.1" y="238.9" class="st1" width="34.4" height="34.4"/>
			<rect x="490.2" y="284.1" class="st1" width="30.1" height="30.1"/>
			<rect x="576.2" y="284.1" class="st1" width="30.1" height="30.1"/>
			<rect x="535.4" y="325.2" class="st1" width="25.8" height="25.8"/>
			<rect x="621.4" y="325.2" class="st1" width="25.8" height="25.8"/>
			<rect x="494.5" y="367.7" class="st1" width="21.5" height="21.5"/>
			<rect x="580.5" y="367.7" class="st1" width="21.5" height="21.5"/>
			<rect x="539.7" y="407.5" class="st1" width="17.2" height="17.2"/>
			<rect x="625.7" y="407.5" class="st1" width="17.2" height="17.2"/>
			<rect x="695.6" y="234.9" class="st1" width="43.3" height="43.3"/>
			<rect x="655.3" y="279.8" class="st1" width="38.7" height="38.7"/>
			<rect x="741.3" y="279.8" class="st1" width="38.7" height="38.7"/>
			<rect x="700.4" y="324.9" class="st1" width="34.4" height="34.4"/>
			<rect x="659.6" y="370.1" class="st1" width="30.1" height="30.1"/>
			<rect x="745.6" y="370.1" class="st1" width="30.1" height="30.1"/>
			<rect x="704.7" y="411.2" class="st1" width="25.8" height="25.8"/>
			<rect x="663.9" y="453.7" class="st1" width="21.5" height="21.5"/>
			<rect x="749.9" y="453.7" class="st1" width="21.5" height="21.5"/>
			<rect x="709" y="493.5" class="st1" width="17.2" height="17.2"/>
		</g>
		<path class="st1" d="M555.9,621.6h-68.1v-84.9l69.6-69.6H545c-6.3,0-12.3,2.5-16.7,6.9L480,522.3L431.7,474
			c-4.4-4.4-10.4-6.9-16.7-6.9h-12.4l69.6,69.6v84.9h-68.1c-6.9,0-13.4,3-17.9,8.2l-6.5,7.5h200.5l-6.5-7.5
			C569.3,624.6,562.8,621.6,555.9,621.6z"/>
		<g id="text">
			<path class="st1" d="M232.6,809.2v-17.8l-49.8-11.5v-49.6h66.6v34.4h-15.8V746h-34v18.7l49.3,11.5v48.5l-42.4,0.1
				c-13.1,0-23.7-10.5-23.7-23.6c0,0,0,0,0-0.1h16v8L232.6,809.2z"/>
			<path class="st1" d="M321.4,824.9l-29.2-41.6h-3.1v41.6h-16V683h16v87.6l32.1-40.1h22.9L304.2,776l42,48.9H321.4z"/>
			<path class="st1" d="M430,730.2v133.4h-66.6v-14.9h49.8V825h-49.4v-94.7h15.5v79.2h33.8v-79.2L430,730.2L430,730.2z"/>
			<path class="st1" d="M511.6,824.9H473v-79.6h-19.4v-15.1H473v-27.9h16v27.9h22.7v15.1h-22.8v64.5h22.7L511.6,824.9L511.6,824.9z"
				/>
			<path class="st1" d="M575.2,745.7l-23.1,0.2v79h-16.8v-94.8h55.9v34.4h-16L575.2,745.7z"/>
			<path class="st1" d="M630.8,763.6V751l24.2-33h-41.4v-15.7H680v16.6L656,751h24.4v73.9h-66.8V797h16v12.2h33.8v-45.6L630.8,763.6
				L630.8,763.6z"/>
			<path class="st1" d="M727.6,763.6V751l24.2-33h-41.4v-15.7h66.4v16.6l-24,32.1h24.4v50.3c0,13.1-10.6,23.7-23.7,23.7h-43.1v-28
				h16v12.2h33.8v-45.6L727.6,763.6L727.6,763.6z"/>
		</g>
	</g>
</g>
</svg>
